<svg width="36" height="36" viewBox="0 0 36 36" fill="none" xmlns="http://www.w3.org/2000/svg">
<path d="M4.53528 25.4464C3.69368 25.9034 2.63218 25.5941 2.26154 24.7111C1.3247 22.4792 0.862995 20.0696 0.91396 17.6368C0.977065 14.6245 1.824 11.6806 3.3713 9.09524C4.9186 6.5099 7.11286 4.37236 9.73782 2.89328C12.3628 1.41419 15.3278 0.644615 18.3408 0.660394C21.3537 0.676173 24.3106 1.47676 26.9199 2.98326C29.5292 4.48976 31.701 6.65017 33.2211 9.25157C34.7413 11.853 35.5573 14.8056 35.5889 17.8184C35.6144 20.2516 35.1274 22.6563 34.1673 24.8782C33.7874 25.7573 32.7227 26.0554 31.886 25.5897C31.0492 25.1239 30.7596 24.0708 31.1174 23.1825C31.797 21.4951 32.1403 19.685 32.1211 17.8547C32.0959 15.4445 31.443 13.0824 30.2269 11.0013C29.0108 8.92013 27.2734 7.1918 25.1859 5.98661C23.0985 4.78141 20.733 4.14094 18.3226 4.12831C15.9123 4.11569 13.5402 4.73135 11.4403 5.91462C9.34029 7.09789 7.58488 8.80792 6.34704 10.8762C5.1092 12.9445 4.43165 15.2996 4.38117 17.7095C4.34283 19.5394 4.6671 21.3531 5.32901 23.0475C5.67747 23.9395 5.37689 24.9895 4.53528 25.4464Z" fill="#E4E4E4"/>
<path d="M4.53528 25.4464C3.69368 25.9034 2.63215 25.5941 2.26148 24.7111C0.719839 21.0387 0.483015 16.9278 1.62423 13.0752C2.93037 8.66575 5.93465 4.95578 9.97617 2.76143C14.0177 0.567076 18.7654 0.0680839 23.1748 1.37423C27.0274 2.51544 30.3461 4.95301 32.5864 8.24611C33.1251 9.0379 32.8063 10.0966 31.9647 10.5535C31.1231 11.0105 30.0788 10.6907 29.5205 9.91261C27.7335 7.42215 25.16 5.5792 22.1898 4.69938C18.6623 3.65447 14.8641 4.05366 11.6309 5.80914C8.39772 7.56462 5.99429 10.5326 4.94938 14.0601C4.06956 17.0303 4.21356 20.1924 5.32896 23.0475C5.67743 23.9395 5.37689 24.9895 4.53528 25.4464Z" fill="url(#paint0_linear_31_975)"/>
<path d="M5.24639 13.2318C4.90184 13.5489 4.90184 14.0719 5.24639 14.389C5.57804 14.6943 6.10583 14.6943 6.43748 14.389L6.43767 14.3889L9.34609 11.7068L11.0854 13.3077C11.417 13.6129 11.9447 13.613 12.2764 13.3078C12.2764 13.3078 12.2764 13.3077 12.2765 13.3077L15.3601 10.4746L16.0184 11.0805C16.1952 11.2432 16.4311 11.2608 16.6139 11.1918C16.7975 11.1225 16.9697 10.9471 16.9697 10.6929V8.38398C16.9789 8.05584 16.6992 7.83966 16.4123 7.83966H13.9049C13.6667 7.83966 13.4725 7.97481 13.3863 8.16483C13.2992 8.35707 13.3282 8.59901 13.511 8.76722L14.1361 9.34255L11.6838 11.5996L9.94438 9.99858C9.61273 9.69332 9.08494 9.69332 8.75329 9.99858L8.75313 9.99874L5.24639 13.2318ZM5.24639 13.2318L5.42987 13.4312L5.24622 13.232L5.24639 13.2318Z" fill="url(#paint1_linear_31_975)" stroke="url(#paint2_linear_31_975)" stroke-width="0.54187"/>
<defs>
<linearGradient id="paint0_linear_31_975" x1="38.1908" y1="28.9571" x2="-2.55781" y2="28.9571" gradientUnits="userSpaceOnUse">
<stop stop-color="#6BD5BF"/>
<stop offset="0.159669" stop-color="#32D172"/>
<stop offset="0.268196" stop-color="#8ACD41"/>
<stop offset="0.658066" stop-color="#F3AF3D"/>
<stop offset="0.804268" stop-color="#FF7A00"/>
<stop offset="1" stop-color="#FF2E00"/>
</linearGradient>
<linearGradient id="paint1_linear_31_975" x1="14.9257" y1="11.4887" x2="6.91771" y2="11.4887" gradientUnits="userSpaceOnUse">
<stop stop-color="#52D060"/>
<stop offset="0.395833" stop-color="#EDB13E"/>
<stop offset="1" stop-color="#FF7501"/>
</linearGradient>
<linearGradient id="paint2_linear_31_975" x1="14.9257" y1="11.4887" x2="6.91771" y2="11.4887" gradientUnits="userSpaceOnUse">
<stop stop-color="#52D060"/>
<stop offset="0.395833" stop-color="#EDB13E"/>
<stop offset="1" stop-color="#FF7501"/>
</linearGradient>
</defs>
</svg>
