<svg width="20" height="21" viewBox="0 0 20 21" fill="none" xmlns="http://www.w3.org/2000/svg">
<path d="M7.403 14.8842L8.043 14.7742C8.167 14.7522 8.315 14.7202 8.486 14.6762C10.6 14.1462 12 12.5662 12 10.8582C12 8.72315 9.824 6.85815 7 6.85815C4.176 6.85815 2 8.72315 2 10.8582C2 12.0762 2.702 13.2362 3.931 14.0082L3.967 14.0282L5 14.5982V17.3612L7.403 14.8842ZM8.385 16.7442L4.718 20.5242C4.57942 20.6671 4.40132 20.7654 4.20651 20.8066C4.0117 20.8477 3.80905 20.8297 3.62452 20.7549C3.43999 20.6802 3.28197 20.552 3.17071 20.3869C3.05945 20.2218 3.00001 20.0273 3 19.8282V15.7782C2.95533 15.754 2.91131 15.7287 2.868 15.7022C1.129 14.6102 0 12.8472 0 10.8582C0 7.54415 3.134 4.85815 7 4.85815C10.866 4.85815 14 7.54415 14 10.8582C14 13.5842 11.879 15.8862 8.974 16.6162C8.77931 16.6661 8.58284 16.7087 8.385 16.7442ZM6.936 3.85815C8.146 2.06515 10.41 0.858154 13 0.858154C16.866 0.858154 20 3.54415 20 6.85815C20 8.84715 18.87 10.6102 17.132 11.7022C17.0887 11.7287 17.0447 11.754 17 11.7782V15.8282C17 16.0273 16.9405 16.2218 16.8293 16.3869C16.718 16.552 16.56 16.6802 16.3755 16.7549C16.1909 16.8297 15.9883 16.8477 15.7935 16.8066C15.5987 16.7654 15.4206 16.6671 15.282 16.5242L13.547 14.7362L14.59 12.9382L15 13.3612V10.5982L16.033 10.0282L16.069 10.0082C17.299 9.23615 18 8.07615 18 6.85815C18 4.72315 15.824 2.85815 13 2.85815C11.72 2.85815 10.574 3.24115 9.703 3.85815H6.936Z" fill="white"/>
</svg>
