<svg width="36" height="36" viewBox="0 0 36 36" fill="none" xmlns="http://www.w3.org/2000/svg">
<g clip-path="url(#clip0_31_1020)">
<path d="M13.0464 25.0004H10.1564C9.70226 25.0004 9.33069 24.6288 9.33069 24.1747V15.9176C9.33069 15.4635 9.70226 15.0919 10.1564 15.0919H13.0464C13.5005 15.0919 13.8721 15.4635 13.8721 15.9176V24.1747C13.8721 24.6288 13.5005 25.0004 13.0464 25.0004ZM19.0327 10.1377H16.1428C15.6886 10.1377 15.3171 10.5093 15.3171 10.9634V24.1747C15.3171 24.6288 15.6886 25.0004 16.1428 25.0004H19.0327C19.4869 25.0004 19.8584 24.6288 19.8584 24.1747V10.9634C19.8584 10.5093 19.4869 10.1377 19.0327 10.1377ZM25.0191 16.7433H22.1291C21.675 16.7433 21.3034 17.1149 21.3034 17.5691V24.1747C21.3034 24.6288 21.675 25.0004 22.1291 25.0004H25.0191C25.4732 25.0004 25.8448 24.6288 25.8448 24.1747V17.5691C25.8448 17.1149 25.4732 16.7433 25.0191 16.7433Z" fill="url(#paint0_linear_31_1020)"/>
</g>
<g opacity="0.2">
<ellipse cx="18" cy="18" rx="17.3208" ry="17.3398" fill="url(#paint1_linear_31_1020)"/>
</g>
<defs>
<linearGradient id="paint0_linear_31_1020" x1="17.5878" y1="10.1377" x2="17.5878" y2="25.0004" gradientUnits="userSpaceOnUse">
<stop stop-color="#967CFD"/>
<stop offset="1" stop-color="#3177FF"/>
</linearGradient>
<linearGradient id="paint1_linear_31_1020" x1="0.0798644" y1="26.6227" x2="34.0622" y2="26.6227" gradientUnits="userSpaceOnUse">
<stop stop-color="#967CFD"/>
<stop offset="1" stop-color="#3177FF"/>
</linearGradient>
<clipPath id="clip0_31_1020">
<rect width="19.817" height="19.817" fill="white" transform="translate(7.6792 7.66016)"/>
</clipPath>
</defs>
</svg>
